<?xml version="1.0"?>
<svg xmlns="http://www.w3.org/2000/svg" xmlns:xlink="http://www.w3.org/1999/xlink" version="1.1" id="Capa_1" x="0px" y="0px" viewBox="0 0 512 512" style="enable-background:new 0 0 512 512;" xml:space="preserve" width="512px" height="512px"><g><g>
	<g>
		<path d="M477.858,17.067H34.142C15.317,17.067,0,32.384,0,51.208v264.525c0,4.71,3.823,8.533,8.533,8.533h494.933    c4.71,0,8.533-3.823,8.533-8.533V51.208C512,32.384,496.683,17.067,477.858,17.067z M494.933,307.2H17.067V51.208    c0-9.421,7.663-17.075,17.075-17.075h443.716c9.412,0,17.075,7.654,17.075,17.075V307.2z" data-original="#000000" class="active-path" data-old_color="#000000" fill="#FFFFFF"/>
	</g>
</g><g>
	<g>
		<path d="M503.467,307.2H8.533c-4.71,0-8.533,3.823-8.533,8.533v42.658c0,18.825,15.317,34.142,34.142,34.142h443.716    c18.825,0,34.142-15.317,34.142-34.142v-42.658C512,311.023,508.177,307.2,503.467,307.2z M494.933,358.391    c0,9.421-7.663,17.075-17.075,17.075H34.142c-9.412,0-17.075-7.654-17.075-17.075v-34.125h477.867V358.391z" data-original="#000000" class="active-path" data-old_color="#000000" fill="#FFFFFF"/>
	</g>
</g><g>
	<g>
		<path d="M281.6,341.333h-51.2c-4.71,0-8.533,3.823-8.533,8.533c0,4.71,3.823,8.533,8.533,8.533h51.2    c4.71,0,8.533-3.823,8.533-8.533C290.133,345.156,286.31,341.333,281.6,341.333z" data-original="#000000" class="active-path" data-old_color="#000000" fill="#FFFFFF"/>
	</g>
</g><g>
	<g>
		<path d="M469.333,51.2H42.667c-4.71,0-8.533,3.823-8.533,8.533v256c0,4.71,3.823,8.533,8.533,8.533h426.667    c4.71,0,8.533-3.823,8.533-8.533v-256C477.867,55.023,474.044,51.2,469.333,51.2z M460.8,307.2H51.2V68.267h409.6V307.2z" data-original="#000000" class="active-path" data-old_color="#000000" fill="#FFFFFF"/>
	</g>
</g><g>
	<g>
		<path d="M366.933,443.733H145.067c-14.114,0-25.6,11.486-25.6,25.6c0,14.114,11.486,25.6,25.6,25.6h221.867    c14.114,0,25.6-11.486,25.6-25.6C392.533,455.219,381.047,443.733,366.933,443.733z M366.933,477.867H145.067    c-4.71,0-8.533-3.831-8.533-8.533c0-4.702,3.823-8.533,8.533-8.533h221.867c4.71,0,8.533,3.831,8.533,8.533    C375.467,474.035,371.644,477.867,366.933,477.867z" data-original="#000000" class="active-path" data-old_color="#000000" fill="#FFFFFF"/>
	</g>
</g><g>
	<g>
		<path d="M349.867,443.733c-28.314,0-42.667-20.096-42.667-59.733c0-4.71-3.823-8.533-8.533-8.533h-85.333    c-4.71,0-8.533,3.823-8.533,8.533c0,39.637-14.353,59.733-42.667,59.733c-4.71,0-8.533,3.823-8.533,8.533s3.823,8.533,8.533,8.533    h187.733c4.71,0,8.533-3.823,8.533-8.533S354.577,443.733,349.867,443.733z M203.699,443.733    c10.505-11.639,16.691-28.971,17.937-51.2h68.736c1.237,22.229,7.424,39.561,17.937,51.2H203.699z" data-original="#000000" class="active-path" data-old_color="#000000" fill="#FFFFFF"/>
	</g>
</g><g>
	<g>
		<path d="M256,85.333c-37.641,0-68.267,30.626-68.267,68.267c0,37.641,30.626,68.267,68.267,68.267    c37.641,0,68.267-30.626,68.267-68.267C324.267,115.959,293.641,85.333,256,85.333z M256,204.8c-28.228,0-51.2-22.963-51.2-51.2    s22.972-51.2,51.2-51.2s51.2,22.963,51.2,51.2S284.228,204.8,256,204.8z" data-original="#000000" class="active-path" data-old_color="#000000" fill="#FFFFFF"/>
	</g>
</g><g>
	<g>
		<path d="M301.884,187.469c-3.217-1.314-6.895-0.555-9.318,1.929C282.846,199.33,269.858,204.8,256,204.8    s-26.846-5.47-36.574-15.403c-2.423-2.475-6.11-3.243-9.318-1.929c-3.208,1.314-5.308,4.437-5.308,7.902V281.6    c0,3.072,1.656,5.914,4.326,7.424c2.671,1.519,5.956,1.476,8.593-0.111L256,265.95l38.281,22.963    c1.348,0.819,2.867,1.22,4.386,1.22c1.451,0,2.901-0.367,4.207-1.109c2.671-1.51,4.326-4.352,4.326-7.424v-86.229    C307.2,191.898,305.101,188.774,301.884,187.469z M290.133,266.53l-29.747-17.843c-1.348-0.819-2.867-1.22-4.386-1.22    s-3.038,0.401-4.386,1.22l-29.747,17.843v-53.794c20.523,11.913,47.744,11.913,68.267,0V266.53z" data-original="#000000" class="active-path" data-old_color="#000000" fill="#FFFFFF"/>
	</g>
</g><g>
	<g>
		<path d="M256,119.467c-18.825,0-34.133,15.309-34.133,34.133s15.309,34.133,34.133,34.133c4.71,0,8.533-3.823,8.533-8.533    c0-4.71-3.823-8.533-8.533-8.533c-9.412,0-17.067-7.654-17.067-17.067c0-9.412,7.654-17.067,17.067-17.067    c9.412,0,17.067,7.654,17.067,17.067c0,4.71,3.823,8.533,8.533,8.533s8.533-3.823,8.533-8.533    C290.133,134.775,274.825,119.467,256,119.467z" data-original="#000000" class="active-path" data-old_color="#000000" fill="#FFFFFF"/>
	</g>
</g><g>
	<g>
		<path d="M256,230.4c-4.71,0-8.533,3.823-8.533,8.533V256c0,4.71,3.823,8.533,8.533,8.533s8.533-3.823,8.533-8.533v-17.067    C264.533,234.223,260.71,230.4,256,230.4z" data-original="#000000" class="active-path" data-old_color="#000000" fill="#FFFFFF"/>
	</g>
</g><g>
	<g>
		<path d="M426.667,85.333h-34.133c-4.71,0-8.533,3.823-8.533,8.533s3.823,8.533,8.533,8.533h34.133c4.71,0,8.533-3.823,8.533-8.533    S431.377,85.333,426.667,85.333z" data-original="#000000" class="active-path" data-old_color="#000000" fill="#FFFFFF"/>
	</g>
</g><g>
	<g>
		<path d="M358.4,85.333h-17.067c-4.71,0-8.533,3.823-8.533,8.533s3.823,8.533,8.533,8.533H358.4c4.71,0,8.533-3.823,8.533-8.533    S363.11,85.333,358.4,85.333z" data-original="#000000" class="active-path" data-old_color="#000000" fill="#FFFFFF"/>
	</g>
</g><g>
	<g>
		<path d="M375.467,119.467h-34.133c-4.71,0-8.533,3.823-8.533,8.533s3.823,8.533,8.533,8.533h34.133    c4.71,0,8.533-3.823,8.533-8.533S380.177,119.467,375.467,119.467z" data-original="#000000" class="active-path" data-old_color="#000000" fill="#FFFFFF"/>
	</g>
</g><g>
	<g>
		<path d="M426.667,119.467H409.6c-4.71,0-8.533,3.823-8.533,8.533s3.823,8.533,8.533,8.533h17.067c4.71,0,8.533-3.823,8.533-8.533    S431.377,119.467,426.667,119.467z" data-original="#000000" class="active-path" data-old_color="#000000" fill="#FFFFFF"/>
	</g>
</g><g>
	<g>
		<path d="M170.667,238.933h-34.133c-4.71,0-8.533,3.823-8.533,8.533s3.823,8.533,8.533,8.533h34.133    c4.71,0,8.533-3.823,8.533-8.533S175.377,238.933,170.667,238.933z" data-original="#000000" class="active-path" data-old_color="#000000" fill="#FFFFFF"/>
	</g>
</g><g>
	<g>
		<path d="M102.4,238.933H85.333c-4.71,0-8.533,3.823-8.533,8.533S80.623,256,85.333,256H102.4c4.71,0,8.533-3.823,8.533-8.533    S107.11,238.933,102.4,238.933z" data-original="#000000" class="active-path" data-old_color="#000000" fill="#FFFFFF"/>
	</g>
</g><g>
	<g>
		<path d="M119.467,273.067H85.333c-4.71,0-8.533,3.823-8.533,8.533c0,4.71,3.823,8.533,8.533,8.533h34.133    c4.71,0,8.533-3.823,8.533-8.533C128,276.89,124.177,273.067,119.467,273.067z" data-original="#000000" class="active-path" data-old_color="#000000" fill="#FFFFFF"/>
	</g>
</g><g>
	<g>
		<path d="M170.667,273.067H153.6c-4.71,0-8.533,3.823-8.533,8.533c0,4.71,3.823,8.533,8.533,8.533h17.067    c4.71,0,8.533-3.823,8.533-8.533C179.2,276.89,175.377,273.067,170.667,273.067z" data-original="#000000" class="active-path" data-old_color="#000000" fill="#FFFFFF"/>
	</g>
</g><g>
	<g>
		<path d="M435.2,230.4c-18.825,0-34.133-15.309-34.133-34.133c0-4.71-3.823-8.533-8.533-8.533c-4.71,0-8.533,3.823-8.533,8.533    c0,18.825-15.309,34.133-34.133,34.133c-4.71,0-8.533,3.823-8.533,8.533c0,4.71,3.823,8.533,8.533,8.533    c18.825,0,34.133,15.309,34.133,34.133c0,4.71,3.823,8.533,8.533,8.533c4.71,0,8.533-3.823,8.533-8.533    c0-18.825,15.309-34.133,34.133-34.133c4.71,0,8.533-3.823,8.533-8.533C443.733,234.223,439.91,230.4,435.2,230.4z     M392.533,253.329c-3.797-5.7-8.695-10.607-14.396-14.396c5.7-3.789,10.607-8.695,14.396-14.396    c3.797,5.7,8.695,10.607,14.396,14.396C401.229,242.731,396.322,247.629,392.533,253.329z" data-original="#000000" class="active-path" data-old_color="#000000" fill="#FFFFFF"/>
	</g>
</g><g>
	<g>
		<path d="M162.133,128C143.309,128,128,112.691,128,93.867c0-4.71-3.823-8.533-8.533-8.533s-8.533,3.823-8.533,8.533    C110.933,112.691,95.625,128,76.8,128c-4.71,0-8.533,3.823-8.533,8.533s3.823,8.533,8.533,8.533    c18.825,0,34.133,15.309,34.133,34.133c0,4.71,3.823,8.533,8.533,8.533S128,183.91,128,179.2    c0-18.825,15.309-34.133,34.133-34.133c4.71,0,8.533-3.823,8.533-8.533S166.844,128,162.133,128z M119.467,150.929    c-3.797-5.7-8.695-10.607-14.396-14.396c5.7-3.789,10.607-8.695,14.396-14.396c3.797,5.7,8.695,10.607,14.396,14.396    C128.162,140.331,123.255,145.229,119.467,150.929z" data-original="#000000" class="active-path" data-old_color="#000000" fill="#FFFFFF"/>
	</g>
</g></g> </svg>
