<?xml version="1.0"?>
<svg xmlns="http://www.w3.org/2000/svg" xmlns:xlink="http://www.w3.org/1999/xlink" version="1.1" id="Capa_1" x="0px" y="0px" viewBox="0 0 480 480" style="enable-background:new 0 0 480 480;" xml:space="preserve" width="512px" height="512px"><g><g>
	<g>
		<path d="M432,336.64V48c0-26.472-21.528-48-48-48s-48,21.528-48,48H8c-4.424,0-8,3.584-8,8v272c0,4.416,3.576,8,8,8h336    c22.056,0,40-17.944,40-40V56c0-4.416-3.576-8-8-8h-24c0-17.648,14.352-32,32-32s32,14.352,32,32v288.64    c-27.088,3.904-48,27.208-48,55.36v32c0,30.88,25.128,56,56,56s56-25.12,56-56v-32C480,363.848,459.088,340.544,432,336.64z     M368,296c0,13.232-10.768,24-24,24H16V128h352V296z M368,64v48H16V64H368z M464,424c0,22.056-17.944,40-40,40    c-22.056,0-40-17.944-40-40v-32c0-22.056,17.944-40,40-40c22.056,0,40,17.944,40,40V424z" data-original="#000000" class="active-path" data-old_color="#000000" fill="#FFFFFF"/>
	</g>
</g><g>
	<g>
		<rect x="416" y="376" width="16" height="24" data-original="#000000" class="active-path" data-old_color="#000000" fill="#FFFFFF"/>
	</g>
</g><g>
	<g>
		<rect x="32" y="80" width="16" height="16" data-original="#000000" class="active-path" data-old_color="#000000" fill="#FFFFFF"/>
	</g>
</g><g>
	<g>
		<rect x="64" y="80" width="16" height="16" data-original="#000000" class="active-path" data-old_color="#000000" fill="#FFFFFF"/>
	</g>
</g><g>
	<g>
		<rect x="96" y="80" width="16" height="16" data-original="#000000" class="active-path" data-old_color="#000000" fill="#FFFFFF"/>
	</g>
</g><g>
	<g>
		<path d="M298.872,184.528l-104-40c-1.856-0.712-3.888-0.712-5.752,0l-104,40C82.04,185.72,80,188.688,80,192    s2.04,6.28,5.128,7.472L88,200.576V296h16v-89.272l16,6.152V272c0,3.336,2.072,6.32,5.184,7.496l64,24    c0.912,0.336,1.864,0.504,2.816,0.504c0.952,0,1.904-0.168,2.816-0.504l64-24c3.112-1.176,5.184-4.16,5.184-7.496v-59.12    l34.872-13.416C301.96,198.28,304,195.312,304,192S301.96,185.72,298.872,184.528z M248,266.456l-56,21l-56-21V219.04    l53.128,20.432c0.928,0.352,1.896,0.528,2.872,0.528s1.944-0.176,2.872-0.528L248,219.04V266.456z M192,223.432L110.288,192    L192,160.568L273.712,192L192,223.432z" data-original="#000000" class="active-path" data-old_color="#000000" fill="#FFFFFF"/>
	</g>
</g></g> </svg>
